HIERARCHY
ROOT Hips
{
	OFFSET 0.00000 0.00000 0.00000
	CHANNELS 6 Xposition Yposition Zposition Zrotation Yrotation Xrotation 
	JOINT LHipJoint
	{
		OFFSET 0 0 0
		CHANNELS 3 Zrotation Yrotation Xrotation
		JOINT LeftUpLeg
		{
			OFFSET 1.91541 -1.65633 0.85440
			CHANNELS 3 Zrotation Yrotation Xrotation
			JOINT LeftLeg
			{
				OFFSET 2.40910 -6.61896 0.00000
				CHANNELS 3 Zrotation Yrotation Xrotation
				JOINT LeftFoot
				{
					OFFSET 2.77800 -7.63250 0.00000
					CHANNELS 3 Zrotation Yrotation Xrotation
					JOINT LeftToeBase
					{
						OFFSET 0.19516 -0.53621 1.89392
						CHANNELS 3 Zrotation Yrotation Xrotation
						End Site
						{
							OFFSET 0.00000 -0.00000 0.99107
						}
					}
				}
			}
		}
	}
	JOINT RHipJoint
	{
		OFFSET 0 0 0
		CHANNELS 3 Zrotation Yrotation Xrotation
		JOINT RightUpLeg
		{
			OFFSET -1.74984 -1.65633 0.85439
			CHANNELS 3 Zrotation Yrotation Xrotation
			JOINT RightLeg
			{
				OFFSET -2.39569 -6.58210 0.00000
				CHANNELS 3 Zrotation Yrotation Xrotation
				JOINT RightFoot
				{
					OFFSET -2.73118 -7.50387 0.00000
					CHANNELS 3 Zrotation Yrotation Xrotation
					JOINT RightToeBase
					{
						OFFSET -0.19068 -0.52390 2.09946
						CHANNELS 3 Zrotation Yrotation Xrotation
						End Site
						{
							OFFSET -0.00000 -0.00000 1.08860
						}
					}
				}
			}
		}
	}
	JOINT LowerBack
	{
		OFFSET 0 0 0
		CHANNELS 3 Zrotation Yrotation Xrotation
		JOINT Spine
		{
			OFFSET -0.09682 2.03828 -0.28043
			CHANNELS 3 Zrotation Yrotation Xrotation
			JOINT Spine1
			{
				OFFSET -0.01078 2.01900 0.12441
				CHANNELS 3 Zrotation Yrotation Xrotation
				JOINT Neck
				{
					OFFSET 0 0 0
					CHANNELS 3 Zrotation Yrotation Xrotation
					JOINT Neck1
					{
						OFFSET 0.03765 1.69444 0.15937
						CHANNELS 3 Zrotation Yrotation Xrotation
						JOINT Head
						{
							OFFSET -0.03952 1.65821 -0.08152
							CHANNELS 3 Zrotation Yrotation Xrotation
							End Site
							{
								OFFSET -0.01790 1.82532 -0.05295
							}
						}
					}
				}
				JOINT LeftShoulder
				{
					OFFSET 0 0 0
					CHANNELS 3 Zrotation Yrotation Xrotation
					JOINT LeftArm
					{
						OFFSET 3.02434 1.50701 -0.08048
						CHANNELS 3 Zrotation Yrotation Xrotation
						JOINT LeftForeArm
						{
							OFFSET 5.79016 -0.00000 0.00000
							CHANNELS 3 Zrotation Yrotation Xrotation
							JOINT LeftHand
							{
								OFFSET 3.48314 -0.00000 0.00000
								CHANNELS 3 Zrotation Yrotation Xrotation
								JOINT LeftFingerBase
								{
									OFFSET 0 0 0
									CHANNELS 3 Zrotation Yrotation Xrotation
									JOINT LeftHandIndex1
									{
										OFFSET 0.58706 -0.00000 0.00000
										CHANNELS 3 Zrotation Yrotation Xrotation
										End Site
										{
											OFFSET 0.47331 -0.00000 0.00000
										}
									}
								}
								JOINT LThumb
								{
									OFFSET 0 0 0
									CHANNELS 3 Zrotation Yrotation Xrotation
									End Site
									{
										OFFSET 0.48053 -0.00000 0.48053
									}
								}
							}
						}
					}
				}
				JOINT RightShoulder
				{
					OFFSET 0 0 0
					CHANNELS 3 Zrotation Yrotation Xrotation
					JOINT RightArm
					{
						OFFSET -3.34016 1.06220 0.01684
						CHANNELS 3 Zrotation Yrotation Xrotation
						JOINT RightForeArm
						{
							OFFSET -5.69822 -0.00000 -0.00000
							CHANNELS 3 Zrotation Yrotation Xrotation
							JOINT RightHand
							{
								OFFSET -3.58077 -0.00000 0.00000
								CHANNELS 3 Zrotation Yrotation Xrotation
								JOINT RightFingerBase
								{
									OFFSET 0 0 0
									CHANNELS 3 Zrotation Yrotation Xrotation
									JOINT RightHandIndex1
									{
										OFFSET -0.62016 -0.00000 0.00000
										CHANNELS 3 Zrotation Yrotation Xrotation
										End Site
										{
											OFFSET -0.49999 -0.00000 0.00000
										}
									}
								}
								JOINT RThumb
								{
									OFFSET 0 0 0
									CHANNELS 3 Zrotation Yrotation Xrotation
									End Site
									{
										OFFSET -0.50762 -0.00000 0.50762
									}
								}
							}
						}
					}
				}
			}
		}
	}
}
MOTION
Frames: 14
Frame Time: 0.142857
0.00 0.00 0.00 0 0 0 0 0 0 -21 0 0 0 0 0 0 0 0 0 0 0 0 0 0 21 0 0 0 0 0 0 0 0 0 0 0 0 0 0 0 0 0 0 0 0 0 0 -16 0 0 21 0 0 11 0 0 0 -8 0 0 0 0 0 0 0 0 0 0 0 0 0 0 0 0 0 0 0 0 8 0 0 0 0 0 0 0 0 0 0 0 0 0 0 0 0 0
0.00 0.00 0.00 5.9522 -4.3813 4.7193 0.0000 0.0000 0.0000 -24.7998 0.4187 7.0923 2.4472 9.7412 28.1426 0.1146 1.0621 -6.8749 0.9445 -6.1897 -17.3359 0.0000 0.0000 0.0000 12.2211 14.4164 -35.3575 -3.7940 -11.8810 35.3125 0.2080 -9.1731 -8.0417 -0.1110 -2.1482 5.9153 -6.8409 -0.1891 3.4698 -0.2283 -0.6323 -2.3513 3.6458 -0.1130 -4.3280 3.9535 4.7198 -6.4460 -3.0631 6.3456 12.9836 -1.1830 3.1019 5.1884 0.0000 0.0000 0.0000 -75.0096 11.7339 43.9593 36.2835 -45.7072 -15.7251 -0.0000 0.0000 -20.8111 18.6635 -21.8557 -7.1669 -7.1250 0.0000 -0.0000 -6.3775 7.1517 5.5694 0.0000 0.0000 0.0000 82.4395 -19.6187 38.1562 -18.7432 29.0983 -4.9053 0.0000 -0.0000 -5.7988 -16.4408 -31.1967 8.6904 7.1250 -0.0000 -0.0000 18.0329 -61.3435 -7.3098
0.00 0.00 0.00 4.7591 -4.2534 4.2055 0.0000 0.0000 0.0000 -22.5882 -1.6820 -0.6711 5.8865 14.3174 44.5243 -0.0831 6.1239 1.3680 0.0500 -1.4437 -3.9706 0.0000 0.0000 0.0000 15.8927 12.1337 -32.2440 -4.0128 -12.1774 36.3625 -0.0458 -6.7288 -10.6478 -0.0489 -1.4272 3.9251 -5.7474 -0.4025 3.4351 0.0729 -0.8376 -2.1757 3.3579 -0.2533 -4.1043 4.4508 4.8641 -6.5738 -4.0096 6.6468 14.0187 -1.5218 3.2045 5.5916 -0.0000 0.0000 0.0000 -76.6434 12.9142 43.0175 31.3395 -42.0142 -12.2965 -0.0000 0.0000 -19.3212 15.5787 -20.5972 -5.6018 -7.1250 0.0000 -0.0000 -8.2656 8.8449 6.9712 -0.0000 0.0000 0.0000 81.8071 -18.3286 39.0359 -18.5986 28.9168 -4.8352 0.0000 -0.0000 -5.0354 -14.6941 -30.7110 7.6280 7.1250 -0.0000 -0.0000 19.5367 -60.4635 -7.5350
0.00 0.00 0.00 2.9052 -5.7445 3.4624 0.0000 0.0000 0.0000 -20.3654 -5.3680 -13.6595 11.1064 17.9868 63.1266 -0.0718 4.9039 -3.0944 0.1650 -2.6169 -7.2141 0.0000 0.0000 0.0000 20.8943 11.4645 -24.1996 -3.5210 -11.4942 33.9653 -0.3652 -5.5452 -14.8006 -0.0792 -1.8151 4.9949 -4.0667 0.3041 3.6748 0.3477 0.1983 -1.9868 2.6275 0.2161 -4.1337 4.2894 5.0117 -6.5872 -3.8742 6.8910 15.1854 -1.4243 3.3165 5.9598 0.0000 0.0000 0.0000 -78.2402 13.9161 44.2387 25.2118 -36.4197 -8.4153 -0.0000 0.0000 -17.5516 9.5194 -19.1544 -3.1493 -7.1250 0.0000 -0.0000 -12.1246 10.9081 9.8398 0.0000 0.0000 0.0000 80.0680 -16.2818 39.4822 -20.8299 31.6292 -5.9605 0.0000 -0.0000 -6.6148 -18.8359 -26.8866 8.7697 7.1250 -0.0000 -0.0000 12.6067 -57.7120 -3.9650
0.00 0.00 0.00 0.9831 -11.6748 5.0204 0.0000 0.0000 0.0000 -18.2983 -14.1342 -34.4086 6.8281 15.1854 48.2212 0.6609 3.3917 -16.9596 0.0010 0.2085 0.5728 0.0000 0.0000 0.0000 27.3282 11.7889 -7.6991 -2.0331 -8.9346 25.5910 -1.1416 -3.8441 -21.9072 -0.3903 -4.0115 11.1091 -2.6862 1.7562 2.3177 -0.5605 2.2126 -2.5261 0.7976 1.1691 -3.9829 5.0501 5.6154 -6.0817 -5.1248 7.7347 12.9108 -1.9057 3.7069 5.2790 -0.0000 0.0000 0.0000 -78.6280 18.9516 39.2820 21.8365 -32.7917 -6.4971 -0.0000 0.0000 -18.1120 11.3895 -19.8678 -3.9164 -7.1250 0.0000 -0.0000 -10.9271 10.0319 9.0267 -0.0000 0.0000 0.0000 77.8297 -11.2138 37.2729 -32.3812 42.8490 -12.9993 0.0000 -0.0000 -11.8893 -22.4824 -31.8584 12.3222 7.1250 -0.0000 -0.0000 11.7119 -63.5338 -5.3015
0.00 0.00 0.00 0.3057 -13.5274 5.9292 0.0000 0.0000 0.0000 -17.0558 -15.2162 -36.1928 3.1980 11.0088 32.3096 0.5622 4.8995 -16.7994 0.3984 -4.0527 -11.2248 0.0000 0.0000 0.0000 28.8969 9.9325 0.9134 -0.7983 -5.7028 15.9244 -0.9540 -4.9517 -20.8778 -0.3175 -3.6220 10.0156 -2.8512 2.1317 1.2811 -0.5606 2.7383 -2.7941 0.8925 1.4356 -3.7015 4.5441 5.6585 -6.1386 -5.1290 7.8361 12.6622 -1.8197 3.7333 5.1970 0.0000 -0.0000 0.0000 -78.6351 19.1681 37.3657 20.7436 -31.5278 -5.9153 -0.0000 0.0000 -16.5926 9.1438 -18.6424 -2.9454 -7.1250 0.0000 -0.0000 -12.3698 11.4440 9.9092 0.0000 -0.0000 0.0000 76.9491 -10.5697 38.3231 -37.6643 46.6235 -16.7211 0.0000 -0.0000 -11.3044 -23.0206 -33.6825 13.2595 7.1250 -0.0000 -0.0000 12.5283 -65.4803 -6.2435
0.00 0.00 0.00 2.9290 -13.8551 4.1138 0.0000 0.0000 0.0000 -25.1979 -11.5597 -29.5873 3.5845 11.5859 34.2823 0.2380 3.3402 -11.0683 0.2919 3.4741 9.6015 0.0000 0.0000 0.0000 19.5396 -3.0871 -1.3951 -5.9940 -14.4225 44.9575 -0.0752 -1.4854 4.8750 -0.0013 -0.2357 0.6476 -6.4935 1.4656 0.0258 -2.1980 1.7365 -3.6206 1.2970 1.0298 -3.8934 5.5463 6.2395 -5.9378 -6.1633 8.7617 14.2974 -2.2190 4.1504 5.8093 -0.0000 -0.0000 0.0000 -77.5108 15.0149 32.1564 17.9925 -28.1476 -4.5457 -0.0000 0.0000 -15.1533 10.5307 -17.7874 -3.2502 -7.1250 0.0000 -0.0000 -11.4747 12.1753 8.9829 -0.0000 -0.0000 0.0000 82.3575 -17.1659 44.1480 -25.2362 36.4444 -8.4298 0.0000 -0.0000 -6.9857 -19.7519 -28.0226 9.5757 7.1250 -0.0000 -0.0000 12.2671 -59.0461 -4.2505
0.00 0.00 0.00 4.4731 -13.3379 3.4827 0.0000 0.0000 0.0000 -28.3503 -9.4958 -24.6236 3.1777 10.9773 32.2034 0.4538 1.4595 -13.3382 0.1346 2.3645 6.5142 0.0000 0.0000 0.0000 16.4336 -0.7581 -12.6474 -10.6982 -17.7842 61.7976 0.0911 -5.9099 0.5311 -0.0269 1.0584 -2.9096 -7.7930 1.3460 0.6068 -2.5483 1.4890 -3.4122 1.6527 0.9400 -4.0244 5.6723 6.3684 -5.2053 -6.1552 8.9411 14.0763 -2.2482 4.2627 5.6311 -0.0000 -0.0000 0.0000 -76.2546 13.0577 35.6449 20.1130 -30.7782 -5.5890 -0.0000 0.0000 -16.2929 10.6838 -17.2850 -3.2084 -7.1250 0.0000 -0.0000 -11.3772 12.6613 8.7858 -0.0000 -0.0000 0.0000 83.3290 -17.5836 42.9433 -21.4249 32.3209 -6.2756 0.0000 -0.0000 -5.6281 -17.7637 -30.6719 9.2815 7.1250 -0.0000 -0.0000 16.1855 -61.1671 -6.4695
0.00 0.00 0.00 4.8706 -6.4902 3.0919 0.0000 0.0000 0.0000 -31.3988 -9.9800 -8.0255 2.3426 9.5460 27.5187 1.3367 -3.3098 -21.0200 0.9933 6.3429 17.7827 0.0000 0.0000 0.0000 12.7152 10.0369 -34.9250 -8.3579 -16.3763 53.8416 -0.0979 -8.6784 -14.0650 -0.1192 2.2256 -6.1296 -8.2167 -0.0152 2.5200 -1.1212 -0.4092 -2.2554 3.4632 -0.0022 -3.7207 6.3396 6.6175 -5.2343 -5.5530 9.1390 14.4682 -2.1449 4.4311 5.7757 0.0000 -0.0000 0.0000 -72.4442 9.3604 41.8649 40.8257 -48.5515 -19.0558 -0.0000 0.0000 -25.1388 15.0953 -20.2261 -5.3276 -7.1250 0.0000 -0.0000 -8.5598 9.2783 7.1501 0.0000 -0.0000 0.0000 82.5223 -20.0560 40.1476 -19.9403 30.5704 -5.5010 0.0000 -0.0000 -6.9160 -17.0352 -30.7851 8.9127 7.1250 -0.0000 -0.0000 17.0676 -61.0975 -6.8053
0.00 0.00 0.00 7.2266 -3.3741 4.7965 0.0000 0.0000 0.0000 -33.3942 -3.9952 6.2486 0.4087 4.1039 11.3692 0.9858 -4.5642 -17.7923 0.3609 3.8592 10.6810 0.0000 0.0000 0.0000 0.4028 27.3225 -32.7906 -1.6772 -8.1587 23.1971 0.0134 -15.1521 -21.3701 -0.2806 3.4067 -9.4131 -10.1893 -0.5089 0.9395 -1.2993 -0.9623 -2.3486 4.3856 -0.2654 -2.8449 6.0205 6.4733 -4.9094 -4.7549 8.8732 14.4752 -1.8783 4.3450 5.6559 -0.0000 0.0000 0.0000 -70.7779 8.3844 43.4856 48.9890 -52.5795 -25.3690 -0.0000 0.0000 -25.2836 16.1259 -21.4842 -6.0445 -7.1250 0.0000 -0.0000 -7.9599 7.8761 6.8624 -0.0000 0.0000 0.0000 82.3348 -20.8396 40.4176 -21.5369 32.4496 -6.3355 0.0000 -0.0000 -7.5371 -16.0905 -31.7877 8.6400 7.1250 -0.0000 -0.0000 18.8906 -61.8146 -7.8824
0.00 0.00 0.00 -177.2430 35.5175 -165.8310 0.0000 0.0000 0.0000 -18.5829 -10.9830 -41.1203 3.0118 10.7141 31.3215 0.4084 2.2758 -13.1194 0.0089 -0.6091 -1.6738 0.0000 0.0000 0.0000 24.1084 6.0369 0.3259 -0.7946 -5.6900 15.8876 -1.3866 -15.0889 -32.1341 -0.0125 -0.7216 1.9831 -0.2915 2.0550 1.8940 -1.0182 2.7321 -2.3493 -1.0165 1.3678 -3.4397 10.3468 12.9051 -1.2823 -14.0442 19.3582 10.3661 -4.6168 9.4962 5.7139 -0.0000 -0.0000 0.0000 -76.3854 16.2289 38.4090 27.9298 -39.0515 -10.0794 -0.0000 0.0000 -20.8962 15.0569 -21.4369 -5.6152 -7.1250 0.0000 -0.0000 -8.6347 8.0577 7.4262 -0.0000 -0.0000 0.0000 72.9820 -11.6774 27.8519 -22.9150 33.9957 -7.0907 0.0000 -0.0000 -13.6350 -26.8027 -34.1912 15.8492 7.1250 -0.0000 -0.0000 8.2022 -67.0868 -4.3737
0.00 0.00 0.00 -175.1900 28.3682 -165.3300 0.0000 0.0000 0.0000 -16.7213 -10.5635 -41.0151 2.1302 9.1322 26.2097 -0.0490 14.1596 -19.5551 0.0720 1.7315 4.7643 0.0000 0.0000 0.0000 25.1909 -7.2187 15.6356 0.0000 -0.0000 0.0000 1.6351 -22.8959 -15.9573 -1.4329 7.5688 -21.4117 -2.1612 2.9264 1.4000 -1.5144 3.8542 -2.9926 -0.5399 1.9882 -3.9033 10.0466 12.1775 -1.8348 -13.2383 18.4537 11.1132 -4.3832 9.0746 5.8134 -0.0000 -0.0000 0.0000 -78.2693 17.6302 29.2533 14.1914 -23.0077 -2.9025 -0.0000 0.0000 -12.4804 12.1199 -18.1825 -3.8337 -7.1250 0.0000 -0.0000 -10.4376 11.6431 8.2580 -0.0000 -0.0000 0.0000 76.5798 -9.8170 39.8529 -29.4313 40.4010 -11.0392 0.0000 -0.0000 -9.9970 -19.7072 -29.9106 10.1269 7.1250 -0.0000 -0.0000 13.5012 -60.9019 -5.2868
0.00 0.00 0.00 -177.3420 23.7622 -166.2210 0.0000 0.0000 0.0000 -20.6803 -10.7332 -39.7528 3.0587 10.7895 31.5731 -0.1588 11.8077 -14.3914 0.0513 1.4612 4.0188 0.0000 0.0000 0.0000 21.7871 -11.1909 10.2251 -0.5674 -4.8243 13.4082 1.9977 -24.1310 -7.3785 -0.1754 2.6978 -7.4385 -3.7450 2.5429 0.3637 -2.5504 3.3799 -3.5631 -0.6723 1.8256 -3.9383 9.9349 11.7151 -1.6177 -13.2923 18.1971 12.0435 -4.4090 8.9927 6.0258 -0.0000 0.0000 0.0000 -77.4550 17.1610 28.2083 11.9405 -19.7153 -2.0822 -0.0000 0.0000 -7.5307 7.9835 -16.0431 -2.2196 -7.1250 0.0000 -0.0000 -13.1798 14.0828 9.8458 -0.0000 0.0000 0.0000 78.4549 -14.2152 46.6197 -33.9680 44.0610 -14.0908 0.0000 -0.0000 -9.2182 -19.9736 -29.9552 10.2860 7.1250 -0.0000 -0.0000 13.2351 -61.0110 -5.2149
0.00 0.00 0.00 -180.5160 -123.6400 -170.7990 0.0000 0.0000 0.0000 -25.2277 -8.4253 -34.7855 2.9952 10.6873 31.2324 0.0808 10.6426 -16.3262 0.3559 3.8324 10.6058 0.0000 0.0000 0.0000 22.4719 -12.5862 -1.4140 -2.9603 -10.6304 31.0434 1.0688 -18.5627 -12.1712 -0.3108 3.5840 -9.9091 -4.1775 1.4016 0.5147 -1.8036 1.6801 -3.2225 0.4165 0.9184 -3.6790 8.2954 11.0288 -2.0508 -12.6537 15.1971 4.9317 -4.4163 7.3600 3.4162 0.0000 -0.0000 0.0000 -77.8036 15.2072 32.3389 17.0816 -26.9653 -4.1243 -0.0000 0.0000 -14.0758 10.0945 -17.1026 -2.9970 -7.1250 0.0000 -0.0000 -11.7660 12.8890 9.0420 0.0000 -0.0000 0.0000 79.8885 -17.4947 38.4369 -28.3344 39.4223 -10.3354 0.0000 -0.0000 -10.3976 -20.6598 -30.2579 10.7580 7.1250 -0.0000 -0.0000 12.6712 -61.4792 -5.1293
